<svg xmlns="http://www.w3.org/2000/svg" width="1319" height="38" fill-rule="evenodd" shape-rendering="geometricPrecision" text-rendering="geometricPrecision" image-rendering="optimizeQuality" clip-rule="evenodd"><defs><style type="text/css"><![CDATA[
    .str0 {stroke:#3F3E3F;stroke-width:4.16693}
    .fil0 {fill:none;fill-rule:nonzero}
   ]]></style></defs><path id="Слой_x0020_1" d="M0 3c30 0 30 33 60 33S90 3 120 3s30 33 60 33 30-33 60-33 30 33 60 33 30-33 60-33 30 33 60 33 30-33 59-33c30 0 30 33 60 33s30-33 60-33 30 33 60 33 30-33 60-33 30 33 60 33 30-33 60-33 30 33 60 33 30-33 60-33 30 33 60 33 30-33 60-33 30 33 60 33 30-33 60-33 30 33 60 33 30-33 60-33" class="fil0 str0"/></svg>